<?xml version="1.0" standalone="no"?>
<!DOCTYPE svg PUBLIC "-//W3C//DTD SVG 20010904//EN"
 "http://www.w3.org/TR/2001/REC-SVG-20010904/DTD/svg10.dtd">
<svg version="1.0" xmlns="http://www.w3.org/2000/svg"
 width="512.000000pt" height="512.000000pt" viewBox="0 0 512.000000 512.000000"
 preserveAspectRatio="xMidYMid meet">

<g transform="translate(0.000000,512.000000) scale(0.100000,-0.100000)"
fill="currentColor" stroke="none">
<path d="M1813 4859 c-103 -17 -216 -74 -300 -152 -86 -79 -128 -157 -218
-401 -9 -26 -31 -64 -48 -83 -57 -65 -67 -67 -337 -74 -227 -6 -252 -8 -335
-33 -256 -76 -462 -281 -542 -541 l-28 -90 0 -1285 0 -1285 28 -90 c80 -259
283 -462 542 -542 l90 -28 1895 0 1895 0 90 28 c331 102 565 404 569 732 1 89
-2 104 -23 138 -13 21 -42 50 -64 65 -34 23 -52 27 -107 27 -55 0 -73 -4 -107
-27 -59 -39 -82 -82 -94 -178 -23 -190 -114 -312 -273 -367 -48 -17 -146 -18
-1886 -18 -1740 0 -1838 1 -1886 18 -113 39 -201 123 -246 234 l-23 58 0 1230
c0 1158 1 1233 18 1281 39 113 124 202 234 245 52 20 82 23 308 29 222 6 257
9 315 29 85 30 157 71 220 128 91 82 136 162 225 408 23 63 87 129 140 144 27
7 248 11 705 11 626 0 667 -2 705 -19 68 -32 92 -68 150 -224 29 -79 68 -169
88 -199 73 -115 193 -206 330 -251 52 -17 101 -21 312 -27 222 -6 256 -9 304
-28 110 -44 189 -121 233 -229 l23 -58 5 -726 5 -725 27 -41 c41 -63 90 -88
169 -88 54 0 72 5 106 27 22 15 51 44 64 65 l24 38 0 750 0 750 -28 90 c-80
259 -286 464 -542 541 -84 25 -107 28 -340 33 -267 6 -283 9 -331 63 -29 31
-46 68 -79 168 -73 223 -174 351 -340 430 -123 59 -147 60 -903 59 -378 -1
-711 -5 -739 -10z"/>
<path d="M2390 3535 c-668 -99 -1146 -723 -1060 -1382 45 -344 218 -645 487
-847 395 -296 900 -338 1335 -109 312 165 553 473 631 808 72 309 36 600 -110
877 -246 466 -764 730 -1283 653z m415 -420 c278 -81 496 -299 581 -580 24
-80 27 -106 27 -235 0 -129 -3 -155 -27 -235 -85 -281 -300 -496 -581 -581
-80 -24 -106 -27 -235 -27 -129 0 -155 3 -235 27 -347 105 -590 409 -612 766
-26 430 279 812 711 890 92 16 271 5 371 -25z"/>
</g>
</svg>
