<?xml version="1.0" standalone="no"?>
<!DOCTYPE svg PUBLIC "-//W3C//DTD SVG 20010904//EN"
 "http://www.w3.org/TR/2001/REC-SVG-20010904/DTD/svg10.dtd">
<svg version="1.0" xmlns="http://www.w3.org/2000/svg"
 width="512.000000pt" height="512.000000pt" viewBox="0 0 512.000000 512.000000"
 preserveAspectRatio="xMidYMid meet">

<g transform="translate(0.000000,512.000000) scale(0.100000,-0.100000)"
fill="currentColor" stroke="none">
<path d="M501 5105 c-178 -39 -348 -172 -429 -336 -77 -155 -72 5 -72 -2209 0
-2214 -5 -2054 72 -2209 82 -166 251 -297 434 -336 104 -22 4004 -22 4108 0
239 50 441 252 491 491 22 104 22 4004 0 4108 -50 239 -252 441 -491 491 -101
21 -4014 21 -4113 0z m4092 -447 c22 -14 51 -43 65 -65 l27 -38 3 -790 2 -790
-362 361 c-220 219 -377 367 -400 377 -46 22 -130 22 -176 0 -24 -10 -312
-291 -802 -780 l-765 -763 -280 280 c-176 176 -295 288 -321 300 -48 24 -121
26 -172 5 -25 -11 -184 -163 -509 -488 l-473 -472 0 1369 c0 1250 1 1371 16
1403 21 43 62 85 106 106 30 15 190 16 2018 14 l1985 -2 38 -27z m-325 -1871
l422 -422 -2 -900 -3 -900 -27 -38 c-14 -22 -43 -51 -65 -65 l-38 -27 -1995 0
-1995 0 -38 27 c-22 14 -51 43 -65 65 l-27 38 -3 315 -3 314 533 533 533 533
640 -639 c673 -672 660 -661 745 -661 151 0 256 169 190 304 -12 26 -124 145
-300 321 l-280 280 672 672 c370 370 675 673 678 673 3 0 195 -190 428 -423z"/>
<path d="M1213 4260 c-222 -33 -385 -254 -353 -481 48 -342 474 -484 720 -239
288 289 38 779 -367 720z"/>
</g>
</svg>
