<?xml version="1.0" standalone="no"?>
<!DOCTYPE svg PUBLIC "-//W3C//DTD SVG 20010904//EN"
 "http://www.w3.org/TR/2001/REC-SVG-20010904/DTD/svg10.dtd">
<svg version="1.0" xmlns="http://www.w3.org/2000/svg"
 width="512.000000pt" height="512.000000pt" viewBox="0 0 512.000000 512.000000"
 preserveAspectRatio="xMidYMid meet">

<g transform="translate(0.000000,512.000000) scale(0.100000,-0.100000)"
fill="currentColor" stroke="none">
<path d="M1765 4674 c-171 -42 -336 -175 -414 -334 -62 -127 -85 -263 -60
-354 14 -50 82 -118 135 -134 63 -18 105 -15 163 14 68 34 107 93 116 173 13
112 43 163 119 204 l41 22 911 0 911 0 48 -30 c36 -22 57 -45 77 -84 l28 -53
0 -1538 0 -1538 -28 -53 c-20 -39 -41 -62 -77 -84 l-48 -30 -911 0 -911 0 -41
22 c-76 41 -106 92 -119 204 -9 82 -48 139 -119 174 -49 24 -65 27 -112 22
-67 -7 -123 -41 -160 -97 -54 -82 -39 -244 37 -400 56 -114 169 -228 279 -282
142 -70 101 -68 1142 -68 635 0 954 4 990 11 81 16 225 91 290 149 110 98 183
236 208 390 14 89 14 3071 0 3160 -39 245 -198 438 -430 522 l-65 23 -970 2
c-821 1 -979 -1 -1030 -13z"/>
<path d="M1630 3399 c-26 -8 -122 -97 -388 -362 -195 -194 -360 -364 -367
-378 -23 -43 -29 -105 -15 -157 12 -43 44 -78 364 -401 233 -234 364 -360 391
-372 51 -24 128 -24 180 0 72 32 125 113 125 191 0 74 -19 102 -176 260 -85
86 -154 159 -154 163 0 4 379 8 843 9 l843 3 37 25 c21 14 50 43 65 64 24 35
27 49 27 116 0 67 -3 81 -27 116 -15 21 -44 50 -65 64 l-37 25 -843 3 c-464 1
-843 5 -843 9 0 4 69 77 154 163 147 148 154 158 166 210 29 132 -60 249 -195
256 -27 2 -66 -1 -85 -7z"/>
</g>
</svg>
