<?xml version="1.0" standalone="no"?>
<!DOCTYPE svg PUBLIC "-//W3C//DTD SVG 20010904//EN"
 "http://www.w3.org/TR/2001/REC-SVG-20010904/DTD/svg10.dtd">
<svg version="1.0" xmlns="http://www.w3.org/2000/svg"
 width="512.000000pt" height="512.000000pt" viewBox="0 0 512.000000 512.000000"
 preserveAspectRatio="xMidYMid meet">

<g transform="translate(0.000000,512.000000) scale(0.100000,-0.100000)"
fill="currentColor" stroke="none">
<path d="M0 1628 c0 -595 4 -967 10 -1008 48 -299 236 -506 538 -588 l97 -26
825 -1 825 0 51 27 c91 48 154 147 154 243 0 99 -69 204 -162 246 l-53 24
-765 5 c-850 6 -797 1 -877 74 -23 20 -53 63 -69 98 l-29 63 -3 893 -3 892
-269 0 -270 0 0 -942z"/>
<path d="M1343 2519 c7 -54 52 -126 105 -166 87 -66 16 -63 1394 -63 1235 0
1248 0 1268 -20 47 -47 49 -45 -404 -500 -472 -474 -475 -478 -484 -607 -4
-64 -1 -79 22 -128 15 -30 42 -66 60 -80 75 -57 183 -70 283 -34 55 20 94 57
761 723 758 756 751 748 768 869 l6 47 -1892 0 -1893 0 6 -41z"/>
</g>
</svg>
