<?xml version="1.0" standalone="no"?>
<!DOCTYPE svg PUBLIC "-//W3C//DTD SVG 20010904//EN"
 "http://www.w3.org/TR/2001/REC-SVG-20010904/DTD/svg10.dtd">
<svg version="1.0" xmlns="http://www.w3.org/2000/svg"
 width="512.000000pt" height="512.000000pt" viewBox="0 0 512.000000 512.000000"
 preserveAspectRatio="xMidYMid meet">

<g transform="translate(0.000000,512.000000) scale(0.100000,-0.100000)"
fill="currentColor" stroke="none">
<path d="M2265 4944 c-422 -57 -862 -241 -1189 -498 -124 -97 -229 -200 -248
-244 -26 -59 -17 -112 29 -163 54 -59 71 -61 623 -57 468 3 486 4 520 24 105
61 109 212 8 274 -31 19 -51 20 -300 20 -148 0 -268 3 -268 8 0 12 193 116
310 167 127 56 289 106 436 135 138 28 445 38 591 21 524 -65 1012 -329 1360
-735 411 -480 583 -1075 482 -1669 -35 -203 -90 -375 -190 -586 -46 -96 -59
-134 -59 -171 0 -91 72 -154 168 -147 92 7 125 46 216 257 297 689 282 1385
-46 2032 -367 727 -1068 1229 -1861 1333 -145 18 -442 18 -582 -1z"/>
<path d="M535 3786 c-47 -21 -70 -53 -134 -187 -113 -237 -202 -545 -232 -809
-15 -138 -7 -483 16 -610 59 -332 181 -637 360 -906 108 -161 186 -256 319
-389 565 -562 1342 -823 2091 -700 433 70 861 283 1228 610 105 93 123 125
114 202 -6 53 -30 90 -78 118 -33 19 -52 20 -524 20 l-490 0 -37 -23 c-40 -25
-78 -91 -78 -137 0 -44 36 -108 72 -130 30 -18 57 -20 278 -25 l245 -5 -50
-33 c-90 -59 -308 -161 -430 -201 -201 -67 -341 -92 -561 -98 -363 -11 -652
51 -969 206 -242 119 -422 249 -611 442 -503 516 -695 1212 -525 1904 38 155
78 266 158 443 56 125 64 148 58 182 -18 107 -125 168 -220 126z"/>
<path d="M1960 3751 c-103 -32 -147 -87 -203 -255 l-44 -131 -169 -6 c-180 -7
-214 -15 -273 -65 -17 -14 -44 -47 -59 -73 l-27 -46 0 -815 c0 -815 0 -815 21
-855 28 -51 68 -91 119 -119 l40 -21 1195 0 c1130 0 1197 1 1231 18 47 24 95
71 122 121 22 41 22 42 25 834 2 531 -1 806 -8 832 -16 58 -69 121 -130 154
-52 28 -61 30 -223 35 l-170 6 -47 138 c-50 149 -77 188 -155 230 -40 22 -46
22 -630 24 -324 1 -601 -2 -615 -6z m800 -552 c277 -69 482 -286 542 -576 35
-172 15 -331 -63 -489 -127 -257 -383 -416 -674 -416 -138 -1 -220 18 -345 79
-82 39 -108 59 -190 142 -159 159 -225 317 -223 531 1 139 24 236 85 360 53
107 177 237 281 295 177 98 385 124 587 74z"/>
<path d="M2436 2975 c-253 -64 -425 -317 -387 -569 29 -200 145 -346 329 -417
78 -30 225 -37 309 -15 193 49 328 185 378 381 63 249 -79 511 -330 604 -78
29 -217 37 -299 16z"/>
</g>
</svg>
