<?xml version="1.0" standalone="no"?>
<!DOCTYPE svg PUBLIC "-//W3C//DTD SVG 20010904//EN"
 "http://www.w3.org/TR/2001/REC-SVG-20010904/DTD/svg10.dtd">
<svg version="1.0" xmlns="http://www.w3.org/2000/svg"
 width="512.000000pt" height="512.000000pt" viewBox="0 0 512.000000 512.000000"
 preserveAspectRatio="xMidYMid meet">

<g transform="translate(0.000000,512.000000) scale(0.100000,-0.100000)"
fill="currentColor" stroke="none">
<path d="M605 4526 c-110 -27 -202 -105 -252 -211 l-28 -60 0 -585 0 -585 27
-57 c47 -101 137 -178 243 -207 22 -6 436 -63 920 -126 484 -64 893 -119 909
-123 19 -5 -251 -43 -815 -116 -464 -59 -886 -114 -937 -122 -157 -23 -261
-95 -320 -222 l-27 -57 0 -595 0 -595 27 -57 c73 -156 239 -247 399 -218 43 8
567 229 1708 722 905 390 1756 758 1891 815 135 58 265 120 290 138 100 70
155 180 154 305 -2 109 -31 179 -108 256 l-61 60 -1900 814 c-1045 447 -1925
819 -1955 826 -66 16 -99 16 -165 0z"/>
</g>
</svg>
