<?xml version="1.0" standalone="no"?>
<!DOCTYPE svg PUBLIC "-//W3C//DTD SVG 20010904//EN"
 "http://www.w3.org/TR/2001/REC-SVG-20010904/DTD/svg10.dtd">
<svg version="1.0" xmlns="http://www.w3.org/2000/svg"
 width="512.000000pt" height="512.000000pt" viewBox="0 0 512.000000 512.000000"
 preserveAspectRatio="xMidYMid meet">

<g transform="translate(0.000000,512.000000) scale(0.100000,-0.100000)"
fill="currentColor" stroke="none">
<path d="M2310 5104 c-89 -39 -124 -101 -139 -249 -6 -60 -14 -131 -17 -157
l-6 -47 -51 -11 c-29 -6 -92 -22 -141 -36 -73 -22 -90 -24 -97 -13 -5 8 -48
68 -96 133 -104 141 -133 161 -233 161 -64 0 -67 -1 -242 -103 -121 -70 -189
-116 -213 -144 -66 -78 -62 -152 22 -335 l61 -132 -105 -104 -104 -105 -132
61 c-183 84 -257 88 -335 22 -28 -24 -74 -92 -144 -213 -102 -175 -103 -178
-103 -242 0 -100 20 -129 161 -233 65 -48 125 -91 133 -96 11 -7 9 -24 -13
-97 -14 -49 -30 -112 -36 -141 l-11 -51 -47 -6 c-26 -3 -96 -11 -157 -17 -149
-15 -212 -50 -249 -141 -23 -54 -23 -442 0 -496 37 -91 100 -126 249 -141 61
-6 131 -14 157 -17 l47 -6 11 -51 c6 -29 22 -92 36 -140 14 -49 24 -90 22 -91
-1 -2 -60 -44 -130 -94 -154 -112 -173 -138 -173 -237 l0 -70 98 -170 c54 -93
115 -187 135 -207 77 -80 159 -78 349 9 l131 61 105 -105 104 -104 -60 -132
c-87 -191 -89 -272 -9 -349 20 -20 114 -81 207 -135 168 -97 171 -98 235 -98
100 0 129 20 233 161 48 65 91 125 96 133 7 11 24 9 97 -13 49 -14 113 -31
142 -37 28 -6 52 -14 52 -19 0 -4 7 -74 16 -155 16 -157 30 -198 81 -247 55
-53 84 -58 313 -58 229 0 258 5 313 58 48 45 64 89 76 207 6 61 14 131 17 157
l6 47 51 11 c29 6 92 22 141 36 73 22 90 24 97 13 5 -8 48 -68 96 -133 104
-141 133 -161 233 -161 64 0 68 2 230 95 242 139 276 177 268 294 -3 48 -17
89 -65 193 l-61 131 105 105 104 104 132 -60 c191 -87 272 -89 349 -9 20 20
81 114 135 207 97 168 98 171 98 235 0 100 -20 129 -161 233 -65 48 -125 91
-133 96 -11 7 -9 24 13 97 14 49 31 113 37 141 6 29 14 53 19 53 4 0 74 7 155
16 157 16 198 30 247 81 53 55 58 84 58 313 0 229 -5 258 -58 313 -48 51 -88
64 -247 81 -82 9 -153 16 -157 16 -3 0 -11 24 -17 53 -6 28 -23 92 -37 140
-14 49 -24 90 -22 91 1 2 58 42 126 91 129 92 151 116 172 179 25 77 11 119
-99 309 -130 224 -165 257 -274 257 -42 0 -79 -12 -195 -64 l-142 -64 -104
105 -103 105 60 132 c89 192 89 272 4 354 -18 17 -108 75 -202 129 -168 97
-171 98 -235 98 -100 0 -129 -20 -233 -161 -48 -65 -91 -125 -96 -133 -7 -11
-24 -9 -97 13 -49 14 -112 30 -141 36 l-51 11 -6 47 c-3 26 -11 97 -17 157
-15 149 -50 212 -141 249 -53 23 -446 22 -498 0z m502 -1073 c294 -51 557
-184 776 -395 129 -125 214 -237 291 -386 82 -160 151 -365 151 -452 l0 -28
-489 0 -489 0 -30 53 c-43 75 -94 130 -162 176 -87 58 -160 82 -269 90 l-93 6
-240 415 c-132 228 -242 420 -245 427 -8 20 232 89 372 106 96 12 321 6 427
-12z m-923 -734 l241 -419 -34 -61 c-19 -34 -42 -89 -50 -122 -18 -67 -20
-189 -6 -252 11 -45 48 -132 75 -173 17 -25 14 -30 -225 -445 -134 -231 -246
-424 -250 -428 -10 -12 -180 152 -252 241 -333 418 -413 1012 -201 1506 45
106 130 248 201 338 72 89 242 253 252 241 4 -4 116 -196 249 -426z m2141
-974 c0 -40 -34 -175 -66 -263 -79 -220 -204 -411 -381 -581 -205 -196 -460
-329 -740 -386 -126 -25 -444 -25 -563 0 -128 28 -272 76 -267 90 3 7 113 199
245 427 l240 415 93 6 c189 13 340 106 431 267 l30 52 489 0 489 0 0 -27z"/>
</g>
</svg>
