<?xml version="1.0" standalone="no"?>
<!DOCTYPE svg PUBLIC "-//W3C//DTD SVG 20010904//EN"
 "http://www.w3.org/TR/2001/REC-SVG-20010904/DTD/svg10.dtd">
<svg version="1.0" xmlns="http://www.w3.org/2000/svg"
 width="512.000000pt" height="512.000000pt" viewBox="0 0 512.000000 512.000000"
 preserveAspectRatio="xMidYMid meet">

<g transform="translate(0.000000,512.000000) scale(0.100000,-0.100000)"
fill="currentColor" stroke="none">
<path d="M578 3776 c-94 -25 -167 -94 -194 -182 -21 -70 -21 -1547 0 -1658 29
-149 93 -270 201 -381 120 -123 272 -195 450 -216 58 -6 474 -9 1185 -7 1227
3 1126 -3 1214 78 25 23 55 63 68 88 l23 47 3 755 c2 507 -1 782 -8 839 -44
336 -306 597 -643 641 -117 15 -2241 12 -2299 -4z"/>
<path d="M4425 3766 c-31 -16 -169 -130 -365 -303 -242 -214 -320 -288 -337
-323 -23 -44 -23 -44 -23 -580 0 -536 0 -536 23 -580 17 -35 94 -108 337 -322
173 -153 335 -287 359 -299 102 -51 234 -13 296 86 l30 48 0 1066 0 1066 -27
46 c-43 73 -124 119 -208 119 -19 0 -57 -11 -85 -24z"/>
</g>
</svg>
